<svg id="visual" viewBox="0 0 900 300" width="900" height="300" xmlns="http://www.w3.org/2000/svg" xmlns:xlink="http://www.w3.org/1999/xlink" version="1.1"><rect x="0" y="0" width="900" height="300" fill="#171717"></rect><path d="M0 67L21.5 80.7C43 94.3 86 121.7 128.8 136.2C171.7 150.7 214.3 152.3 257.2 137.5C300 122.7 343 91.3 385.8 83C428.7 74.7 471.3 89.3 514.2 100.2C557 111 600 118 642.8 113.3C685.7 108.7 728.3 92.3 771.2 90.2C814 88 857 100 878.5 106L900 112L900 301L878.5 301C857 301 814 301 771.2 301C728.3 301 685.7 301 642.8 301C600 301 557 301 514.2 301C471.3 301 428.7 301 385.8 301C343 301 300 301 257.2 301C214.3 301 171.7 301 128.8 301C86 301 43 301 21.5 301L0 301Z" fill="#91c587"></path><path d="M0 129L21.5 131.5C43 134 86 139 128.8 151.5C171.7 164 214.3 184 257.2 193.5C300 203 343 202 385.8 197.8C428.7 193.7 471.3 186.3 514.2 173.2C557 160 600 141 642.8 144.7C685.7 148.3 728.3 174.7 771.2 187.2C814 199.7 857 198.3 878.5 197.7L900 197L900 301L878.5 301C857 301 814 301 771.2 301C728.3 301 685.7 301 642.8 301C600 301 557 301 514.2 301C471.3 301 428.7 301 385.8 301C343 301 300 301 257.2 301C214.3 301 171.7 301 128.8 301C86 301 43 301 21.5 301L0 301Z" fill="#4c6347"></path><path d="M0 226L21.5 220.8C43 215.7 86 205.3 128.8 204.2C171.7 203 214.3 211 257.2 210.3C300 209.7 343 200.3 385.8 202.7C428.7 205 471.3 219 514.2 220.3C557 221.7 600 210.3 642.8 211.8C685.7 213.3 728.3 227.7 771.2 228.8C814 230 857 218 878.5 212L900 206L900 301L878.5 301C857 301 814 301 771.2 301C728.3 301 685.7 301 642.8 301C600 301 557 301 514.2 301C471.3 301 428.7 301 385.8 301C343 301 300 301 257.2 301C214.3 301 171.7 301 128.8 301C86 301 43 301 21.5 301L0 301Z" fill="#0e0e0e"></path></svg>