<svg id="visual" viewBox="0 0 900 300" width="900" height="300" xmlns="http://www.w3.org/2000/svg" xmlns:xlink="http://www.w3.org/1999/xlink" version="1.1"><rect x="0" y="0" width="900" height="300" fill="#171717"></rect><path d="M0 231L21.5 217.3C43 203.7 86 176.3 128.8 161.8C171.7 147.3 214.3 145.7 257.2 160.5C300 175.3 343 206.7 385.8 215C428.7 223.3 471.3 208.7 514.2 197.8C557 187 600 180 642.8 184.7C685.7 189.3 728.3 205.7 771.2 207.8C814 210 857 198 878.5 192L900 186L900 0L878.5 0C857 0 814 0 771.2 0C728.3 0 685.7 0 642.8 0C600 0 557 0 514.2 0C471.3 0 428.7 0 385.8 0C343 0 300 0 257.2 0C214.3 0 171.7 0 128.8 0C86 0 43 0 21.5 0L0 0Z" fill="#91c587"></path><path d="M0 169L21.5 166.5C43 164 86 159 128.8 146.5C171.7 134 214.3 114 257.2 104.5C300 95 343 96 385.8 100.2C428.7 104.3 471.3 111.7 514.2 124.8C557 138 600 157 642.8 153.3C685.7 149.7 728.3 123.3 771.2 110.8C814 98.3 857 99.7 878.5 100.3L900 101L900 0L878.5 0C857 0 814 0 771.2 0C728.3 0 685.7 0 642.8 0C600 0 557 0 514.2 0C471.3 0 428.7 0 385.8 0C343 0 300 0 257.2 0C214.3 0 171.7 0 128.8 0C86 0 43 0 21.5 0L0 0Z" fill="#4c6347"></path><path d="M0 72L21.5 77.2C43 82.3 86 92.7 128.8 93.8C171.7 95 214.3 87 257.2 87.7C300 88.3 343 97.7 385.8 95.3C428.7 93 471.3 79 514.2 77.7C557 76.3 600 87.7 642.8 86.2C685.7 84.7 728.3 70.3 771.2 69.2C814 68 857 80 878.5 86L900 92L900 0L878.5 0C857 0 814 0 771.2 0C728.3 0 685.7 0 642.8 0C600 0 557 0 514.2 0C471.3 0 428.7 0 385.8 0C343 0 300 0 257.2 0C214.3 0 171.7 0 128.8 0C86 0 43 0 21.5 0L0 0Z" fill="#0e0e0e"></path></svg>
