<svg width="960px" height="540px" version="1.1" viewBox="0 0 960 540" xmlns="http://www.w3.org/2000/svg" xmlns:xlink="http://www.w3.org/1999/xlink"><defs><path id="c" d="m960 0v540h-960v-540h960z"/><path id="b" d="m960 0v540h-960v-540h960z"/><clipPath id="d"><use clip-rule="evenodd" fill-rule="evenodd" xlink:href="#c"/></clipPath><clipPath id="a"><use clip-rule="evenodd" fill-rule="evenodd" xlink:href="#b"/></clipPath></defs><path id="e" d="m960 0v540h-960v-540h960z" fill="none"/><g clip-path="url(#d)"><path id="f" d="m960 0v540h-960v-540h960z" fill="none"/><g id="g"><path d="m960 0v540h-960v-540h960z" fill="none" fill-rule="evenodd"/><g clip-path="url(#a)"><path id="h" d="m0 0h960v540h-960v-540z" fill="#171717" fill-rule="evenodd"/></g></g><path d="m960 0v540h-960v-540h960z" fill="none" fill-rule="evenodd"/><g clip-path="url(#a)"><path d="m0 0h960v540h-960v-540z" fill="#171717" fill-rule="evenodd"/></g><path d="m960 0v540h-960v-540h960z" fill="none" fill-rule="evenodd"/><g clip-path="url(#a)"><path id="i" d="m0 192 22.8-1c22.9-1 68.5-3 114.2-11s91.3-22 137-27.3c45.7-5.4 91.3-2 137.2-14.2 45.8-12.2 91.8-39.8 137.6-49.8 45.9-10 91.5-2.4 137.2 12.5 45.7 14.8 91.3 36.8 137 32.8s91.3-34 114.2-49l22.8-15v-70h-22.8-114.2-137-137.2-137.6-137.2-137-114.2-22.8v192z" fill="#0E0E0E"/></g><path d="m960 0v540h-960v-540h960z" fill="none" fill-rule="evenodd"/><g clip-path="url(#a)"><path d="m0 192 22.8-1c22.9-1 68.5-3 114.2-11s91.3-22 137-27.3c45.7-5.4 91.3-2 137.2-14.2 45.8-12.2 91.8-39.8 137.6-49.8 45.9-10 91.5-2.4 137.2 12.5 45.7 14.8 91.3 36.8 137 32.8s91.3-34 114.2-49l22.8-15v-70h-22.8-114.2-137-137.2-137.6-137.2-137-114.2-22.8v192z" fill="#0E0E0E"/></g><path d="m960 0v540h-960v-540h960z" fill="none" fill-rule="evenodd"/><g clip-path="url(#a)"><path id="j" d="m960 348-22.8 1c-22.9 1-68.5 3-114.2 11s-91.3 22-137 27.3c-45.7 5.4-91.3 2-137.2 14.2-45.8 12.2-91.8 39.8-137.6 49.8-45.9 10-91.5 2.4-137.2-12.5-45.7-14.8-91.3-36.8-137-32.8-45.7 4-91.3 34-114.2 49l-22.8 15v70h22.8 114.2 137 137.2 137.6 137.2 137 114.2 22.8v-192z" fill="#0E0E0E"/></g><path d="m960 0v540h-960v-540h960z" fill="none" fill-rule="evenodd"/><g clip-path="url(#a)"><path d="m960 348-22.8 1c-22.9 1-68.5 3-114.2 11s-91.3 22-137 27.3c-45.7 5.4-91.3 2-137.2 14.2-45.8 12.2-91.8 39.8-137.6 49.8-45.9 10-91.5 2.4-137.2-12.5-45.7-14.8-91.3-36.8-137-32.8-45.7 4-91.3 34-114.2 49l-22.8 15v70h22.8 114.2 137 137.2 137.6 137.2 137 114.2 22.8v-192z" fill="#0E0E0E"/></g><path d="m960 0v540h-960v-540h960z" fill="none"/><path d="m960 0v540h-960v-540h960z" fill="none" fill-rule="evenodd"/><g clip-path="url(#a)"><path d="m0 0h960v540h-960v-540z" fill="#171717" fill-rule="evenodd"/></g><path d="m960 0v540h-960v-540h960z" fill="none" fill-rule="evenodd"/><g clip-path="url(#a)"><path d="m0 0h960v540h-960v-540z" fill="#171717" fill-rule="evenodd"/></g><path d="m960 0v540h-960v-540h960z" fill="none" fill-rule="evenodd"/><g clip-path="url(#a)"><path d="m0 192 22.8-1c22.9-1 68.5-3 114.2-11s91.3-22 137-27.3c45.7-5.4 91.3-2 137.2-14.2 45.8-12.2 91.8-39.8 137.6-49.8 45.9-10 91.5-2.4 137.2 12.5 45.7 14.8 91.3 36.8 137 32.8s91.3-34 114.2-49l22.8-15v-70h-22.8-114.2-137-137.2-137.6-137.2-137-114.2-22.8v192z" fill="#0E0E0E"/></g><path d="m960 0v540h-960v-540h960z" fill="none" fill-rule="evenodd"/><g clip-path="url(#a)"><path d="m0 192 22.8-1c22.9-1 68.5-3 114.2-11s91.3-22 137-27.3c45.7-5.4 91.3-2 137.2-14.2 45.8-12.2 91.8-39.8 137.6-49.8 45.9-10 91.5-2.4 137.2 12.5 45.7 14.8 91.3 36.8 137 32.8s91.3-34 114.2-49l22.8-15v-70h-22.8-114.2-137-137.2-137.6-137.2-137-114.2-22.8v192z" fill="#0E0E0E"/></g><path d="m960 0v540h-960v-540h960z" fill="none" fill-rule="evenodd"/><g clip-path="url(#a)"><path d="m960 348-22.8 1c-22.9 1-68.5 3-114.2 11s-91.3 22-137 27.3c-45.7 5.4-91.3 2-137.2 14.2-45.8 12.2-91.8 39.8-137.6 49.8-45.9 10-91.5 2.4-137.2-12.5-45.7-14.8-91.3-36.8-137-32.8-45.7 4-91.3 34-114.2 49l-22.8 15v70h22.8 114.2 137 137.2 137.6 137.2 137 114.2 22.8v-192z" fill="#0E0E0E"/></g><path d="m960 0v540h-960v-540h960z" fill="none" fill-rule="evenodd"/><g clip-path="url(#a)"><path d="m960 348-22.8 1c-22.9 1-68.5 3-114.2 11s-91.3 22-137 27.3c-45.7 5.4-91.3 2-137.2 14.2-45.8 12.2-91.8 39.8-137.6 49.8-45.9 10-91.5 2.4-137.2-12.5-45.7-14.8-91.3-36.8-137-32.8-45.7 4-91.3 34-114.2 49l-22.8 15v70h22.8 114.2 137 137.2 137.6 137.2 137 114.2 22.8v-192z" fill="#0E0E0E"/></g></g></svg>
